<svg width="41" height="52" fill="none" xmlns="http://www.w3.org/2000/svg"><path d="M20.672 43.588c-4.284 0-8.432-2.244-9.18-8.024H.34c1.292 11.492 10.336 16.32 20.128 16.32 10.268 0 19.584-5.1 19.584-15.232 0-4.556-2.788-9.724-7.684-11.696 3.468-1.972 6.868-6.052 6.868-11.22C39.236 4.76 29.92.884 21.216.884 11.288.884 2.04 5.236.952 16.048h11.084c.748-5.236 4.42-6.868 8.636-6.868 3.672 0 7.276 1.904 7.276 5.508 0 4.352-3.876 6.46-10.336 6.46h-2.924v9.248h3.264c6.324 0 10.608 1.972 10.608 6.324 0 4.556-2.992 6.868-7.888 6.868z" fill="#F90"/></svg>