<svg width="190" height="35" fill="none" xmlns="http://www.w3.org/2000/svg"><g clip-path="url(#clip0)"><path d="M0 17.5C0 7.835 7.835 0 17.5 0S35 7.835 35 17.5 27.165 35 17.5 35 0 27.165 0 17.5z" fill="#000"/><path d="M17.975 19.308c1.022 2.24 1.363 3.02 1.363 5.71v3.566h-3.652v-6.013L8.796 7.584h3.81l5.369 11.724zm4.504-11.724l-4.468 10.154h3.713l4.48-10.154H22.48z" fill="#fff"/><path d="M44.375 3.938V30h4.538v-9.3h2.212c5.925 0 9.712-2.738 9.712-8.512 0-5.25-3.525-8.25-9.675-8.25h-6.787zm6.788 13.237h-2.25V7.462h2.4c3.187 0 4.912 1.463 4.912 4.726 0 3.412-1.913 4.987-5.063 4.987zm17.12 1.05c1.238-2.288 3.075-3.45 5.813-3.3v-4.2c-2.55.15-4.65 1.688-5.7 4.162h-.113l-.112-3.75h-4.35V30h4.462V18.225zm21.796-1.088c0-4.575-2.325-6.3-7.05-6.3-2.962 0-5.287.938-6.638 1.726v3.712c1.2-.9 3.825-1.875 6.113-1.875 2.137 0 3.112.75 3.112 2.775v1.05h-.712c-6.825 0-9.862 2.25-9.862 6.075s2.325 5.962 5.775 5.962c2.625 0 3.75-.862 4.612-1.762h.188c.037.488.187 1.125.337 1.5h4.35a47.475 47.475 0 01-.225-4.613v-8.25zM85.617 25.5c-.563.825-1.613 1.5-3.188 1.5-1.875 0-2.813-1.125-2.813-2.813 0-2.212 1.538-3 5.363-3h.638V25.5zm16.15 4.875c2.062 0 3.525-.375 4.613-1.163v-3.637c-1.125.788-2.476 1.275-4.351 1.275-3.187 0-4.5-2.475-4.5-6.375 0-4.088 1.613-6.188 4.538-6.188 1.725 0 3.412.6 4.313 1.163v-3.787c-.938-.526-2.588-.9-4.8-.9-5.7 0-8.663 4.087-8.663 9.824 0 6.3 2.888 9.788 8.85 9.788zm6.111-19.238v3.525h2.362v9.675c0 3.526 1.988 6.038 6.113 6.038 2.175 0 3.412-.488 3.412-.488V26.25s-.825.6-2.325.6c-1.875 0-2.738-1.088-2.738-2.475v-9.713h4.688v-3.525h-4.688V7.012h-4.462v4.125h-2.362zm16.346-2.325c1.462 0 2.625-1.012 2.625-2.624 0-1.575-1.163-2.625-2.625-2.625s-2.587 1.05-2.587 2.624c0 1.613 1.125 2.625 2.587 2.625zm-2.212 2.325V30h4.462V11.137h-4.462zm16.303 19.238c2.063 0 3.525-.375 4.613-1.163v-3.637c-1.125.788-2.476 1.275-4.351 1.275-3.187 0-4.5-2.475-4.5-6.375 0-4.088 1.613-6.188 4.538-6.188 1.725 0 3.413.6 4.313 1.163v-3.787c-.938-.526-2.588-.9-4.8-.9-5.701 0-8.663 4.087-8.663 9.824 0 6.3 2.888 9.788 8.85 9.788zm17.922-5.7c-.825 1.012-2.137 1.875-3.75 1.875-1.575 0-2.287-.675-2.287-2.1V11.137h-4.463V24.9c0 3.75 1.5 5.4 5.138 5.4 2.662 0 4.237-.975 5.137-1.875h.225L156.35 30h4.35V11.137h-4.463v13.538zm12.681-8.213c.825-1.012 1.949-1.874 3.562-1.874 1.575 0 2.1.675 2.1 2.1V30h4.462V16.462c.825-1.012 1.95-1.874 3.563-1.874 1.575 0 2.1.675 2.1 2.1V30h4.462V16.238c0-3.75-1.312-5.4-4.95-5.4-2.887 0-4.612 1.125-5.662 2.4-.713-1.65-2.213-2.4-4.65-2.4-2.663 0-3.863.975-4.763 1.875h-.224l-.113-1.575h-4.35V30h4.463V16.462z" fill="#000"/></g><defs><clipPath id="clip0"><path fill="#fff" d="M0 0h189.167v35H0z"/></clipPath></defs></svg>