<svg width="40" height="40" fill="none" xmlns="http://www.w3.org/2000/svg"><circle cx="20" cy="20" r="20" fill="#F90"/><path d="M19.802 25.58c-1.98 0-2.98-1.28-3.2-2.96h-2.08c.16 2.48 1.88 4.64 5.24 4.64 2.82 0 5.34-1.42 5.34-4.36 0-1.48-.68-2.96-2.64-3.6 1.44-.62 2.26-1.86 2.26-3.32 0-2.72-2.3-3.74-4.76-3.74-3.12 0-5.02 1.8-5.24 4.46h2.08c.22-1.68 1.22-2.8 3.06-2.8 1.46 0 2.68.74 2.68 2.26 0 1.6-1.2 2.32-3.62 2.32h-.42v1.82h.5c2.24 0 3.92.64 3.92 2.64 0 1.68-1.3 2.64-3.12 2.64z" fill="#fff"/></svg>